<svg id="Layer_1" data-name="Layer 1" xmlns="http://www.w3.org/2000/svg" viewBox="0 0 411.99 83"><defs><style>.cls-1{fill:#1f76bb;}</style></defs><title>todo-cartoes-blue-and-black</title><path class="cls-1" d="M15.29,19l10.57-1.7v11H38.55V37H25.86V50.15A10.46,10.46,0,0,0,27,55.47q1.17,2,4.71,2a19.5,19.5,0,0,0,3.51-.32,17.82,17.82,0,0,0,3.3-.88L40,64.47a30.53,30.53,0,0,1-4.26,1.35,24.69,24.69,0,0,1-5.74.56,19.12,19.12,0,0,1-7.16-1.16A11.34,11.34,0,0,1,18.34,62,12.15,12.15,0,0,1,16,56.88a29.79,29.79,0,0,1-.68-6.59Z"/><path class="cls-1" d="M80.59,46.82a24.21,24.21,0,0,1-1.28,8,17.47,17.47,0,0,1-3.68,6.24,16.68,16.68,0,0,1-5.78,4,19.39,19.39,0,0,1-7.55,1.42,19.18,19.18,0,0,1-7.48-1.42,16.59,16.59,0,0,1-5.78-4,18.23,18.23,0,0,1-3.76-6.24,23,23,0,0,1-1.34-8,22.3,22.3,0,0,1,1.38-8,18.15,18.15,0,0,1,3.83-6.17,17.07,17.07,0,0,1,5.81-4,18.62,18.62,0,0,1,7.34-1.42,18.86,18.86,0,0,1,7.41,1.42,16.72,16.72,0,0,1,5.77,4,18,18,0,0,1,3.76,6.17A22.74,22.74,0,0,1,80.59,46.82Zm-10.78,0a13.31,13.31,0,0,0-2-7.7,6.38,6.38,0,0,0-5.56-2.8,6.48,6.48,0,0,0-5.6,2.8,13.09,13.09,0,0,0-2,7.7,13.37,13.37,0,0,0,2,7.76,6.42,6.42,0,0,0,5.6,2.87,6.33,6.33,0,0,0,5.56-2.87A13.61,13.61,0,0,0,69.81,46.82Z"/><path class="cls-1" d="M121.64,64.33c-1,.28-2,.56-3.26.81s-2.52.49-3.87.68-2.72.34-4.11.46-2.73.18-4,.18a23.38,23.38,0,0,1-8.22-1.35,16.18,16.18,0,0,1-9.89-10,23.4,23.4,0,0,1-1.31-8,27.81,27.81,0,0,1,1.13-8.19,18,18,0,0,1,3.26-6.2,14,14,0,0,1,5.22-3.9,17.38,17.38,0,0,1,7-1.35,16.2,16.2,0,0,1,3.93.43,20.82,20.82,0,0,1,3.51,1.2V12.22l10.57-1.7ZM97.75,46.6a13,13,0,0,0,2.19,7.87,7.59,7.59,0,0,0,6.53,3c.94,0,1.81,0,2.62-.1s1.46-.16,2-.25V37.88a9.2,9.2,0,0,0-2.58-1.06,12.67,12.67,0,0,0-3.23-.42Q97.75,36.4,97.75,46.6Z"/><path class="cls-1" d="M166.44,46.82a24.21,24.21,0,0,1-1.27,8,17.34,17.34,0,0,1-3.69,6.24,16.59,16.59,0,0,1-5.78,4,20.6,20.6,0,0,1-15,0,16.68,16.68,0,0,1-5.78-4,18.21,18.21,0,0,1-3.75-6.24,23,23,0,0,1-1.35-8,22.3,22.3,0,0,1,1.38-8A18.15,18.15,0,0,1,135,32.64a17.17,17.17,0,0,1,5.81-4,19.86,19.86,0,0,1,14.75,0,16.85,16.85,0,0,1,5.78,4,18.16,18.16,0,0,1,3.76,6.17A23,23,0,0,1,166.44,46.82Zm-10.77,0a13.31,13.31,0,0,0-1.95-7.7,6.4,6.4,0,0,0-5.57-2.8,6.48,6.48,0,0,0-5.6,2.8,13.16,13.16,0,0,0-2,7.7,13.45,13.45,0,0,0,2,7.76,6.42,6.42,0,0,0,5.6,2.87,6.34,6.34,0,0,0,5.57-2.87A13.61,13.61,0,0,0,155.67,46.82Z"/><path d="M190.9,66.31A19.69,19.69,0,0,1,183.39,65,14.19,14.19,0,0,1,178,61.1a17.09,17.09,0,0,1-3.29-6,25.05,25.05,0,0,1-1.14-7.77,25.05,25.05,0,0,1,1.17-7.87,17.65,17.65,0,0,1,3.37-6.09,14.86,14.86,0,0,1,5.32-3.94,17.18,17.18,0,0,1,7-1.38,29.55,29.55,0,0,1,5.56.5,14,14,0,0,1,4,1.27l-1.21,4a14.76,14.76,0,0,0-3.19-1.13,20.71,20.71,0,0,0-4.75-.43q-6.09,0-9.25,3.94t-3.16,11.16a23.83,23.83,0,0,0,.71,6A12,12,0,0,0,181.44,58,10.71,10.71,0,0,0,185.55,61a15.17,15.17,0,0,0,6.13,1.1,16,16,0,0,0,5-.67,20,20,0,0,0,2.94-1.17l1,4a17.4,17.4,0,0,1-4,1.38A23.69,23.69,0,0,1,190.9,66.31Z"/><path d="M219.47,28a16.19,16.19,0,0,1,6.14,1,10.55,10.55,0,0,1,4.07,2.83A11.19,11.19,0,0,1,232,36.18a19.68,19.68,0,0,1,.71,5.39V64.68a17.31,17.31,0,0,1-2.06.46q-1.33.26-3.12.54c-1.18.18-2.49.34-3.93.46s-2.92.17-4.43.17a21.39,21.39,0,0,1-5.35-.63,11.93,11.93,0,0,1-4.26-2,9.62,9.62,0,0,1-2.83-3.55,12.16,12.16,0,0,1-1-5.28,10.8,10.8,0,0,1,1.13-5.11A9.83,9.83,0,0,1,210,46.21a14.42,14.42,0,0,1,4.89-2,28.46,28.46,0,0,1,6.17-.63c.66,0,1.36,0,2.09.1s1.45.17,2.13.29,1.28.23,1.77.35a5.86,5.86,0,0,1,1,.32V42.35a23.76,23.76,0,0,0-.28-3.72,8.11,8.11,0,0,0-1.24-3.26,6.89,6.89,0,0,0-2.7-2.34,10.1,10.1,0,0,0-4.57-.89,23.61,23.61,0,0,0-6,.57c-1.32.38-2.29.68-2.9.92l-.64-4a16.85,16.85,0,0,1,3.72-1.06A31.9,31.9,0,0,1,219.47,28Zm.43,34.17c1.79,0,3.37-.06,4.71-.18a29.85,29.85,0,0,0,3.44-.46V48.66a14,14,0,0,0-2.48-.74,21.91,21.91,0,0,0-4.68-.39,27.35,27.35,0,0,0-3.54.24,10.46,10.46,0,0,0-3.41,1.07,7,7,0,0,0-2.55,2.23,6.46,6.46,0,0,0-1,3.76,8,8,0,0,0,.67,3.47A5.6,5.6,0,0,0,213,60.57a8.34,8.34,0,0,0,3,1.24A18.07,18.07,0,0,0,219.9,62.2Z"/><path d="M256.91,28.17a24.5,24.5,0,0,1,4.29.36,13.58,13.58,0,0,1,2.8.7l-.93,4a11.05,11.05,0,0,0-2.3-.6,26.54,26.54,0,0,0-4.57-.32,21.88,21.88,0,0,0-4.79.43,12.63,12.63,0,0,0-2.37.71V65.53h-4.61V30.58A33.51,33.51,0,0,1,249.32,29,30.11,30.11,0,0,1,256.91,28.17Z"/><path d="M275.27,28.88h14.6v3.9h-14.6v19.5a19.58,19.58,0,0,0,.53,5.07,7,7,0,0,0,1.52,3,4.91,4.91,0,0,0,2.41,1.42,13.24,13.24,0,0,0,3.12.35,13.41,13.41,0,0,0,4.68-.67,21,21,0,0,0,2.77-1.24l1.13,3.83A16.82,16.82,0,0,1,288,65.5a17.3,17.3,0,0,1-5.39.81,16,16,0,0,1-5.71-.88,8.23,8.23,0,0,1-3.68-2.7,10.77,10.77,0,0,1-1.95-4.5,31.13,31.13,0,0,1-.57-6.38V18.1l4.61-.85Z"/><path d="M329.64,47.24a23.58,23.58,0,0,1-1.24,7.87,17.42,17.42,0,0,1-3.47,6A15.87,15.87,0,0,1,319.65,65a17.12,17.12,0,0,1-13.47,0,15.77,15.77,0,0,1-5.28-3.86,17.6,17.6,0,0,1-3.48-6,23.58,23.58,0,0,1-1.24-7.87,23.67,23.67,0,0,1,1.24-7.87,18,18,0,0,1,3.48-6.06,15.49,15.49,0,0,1,5.28-3.9,17.12,17.12,0,0,1,13.47,0,15.58,15.58,0,0,1,5.28,3.9,17.84,17.84,0,0,1,3.47,6.06A23.67,23.67,0,0,1,329.64,47.24Zm-4.89,0q0-6.87-3.19-11a11.21,11.21,0,0,0-17.3,0q-3.18,4.08-3.19,11t3.19,10.92a11.28,11.28,0,0,0,17.3,0Q324.76,54.13,324.75,47.24Zm-7.44-26.3a7.8,7.8,0,0,1-2.84-.5c-.85-.33-1.68-.68-2.48-1.06a13.23,13.23,0,0,0-2.2-1,5.7,5.7,0,0,0-1.56-.24,2.93,2.93,0,0,0-2.34,1,16,16,0,0,0-1.56,2.2l-2.69-1.28a14.3,14.3,0,0,1,1-1.84A10.11,10.11,0,0,1,304,16.4,7.37,7.37,0,0,1,305.93,15a5.5,5.5,0,0,1,2.52-.56,7.75,7.75,0,0,1,2.83.49c.85.33,1.68.69,2.48,1.07a12.26,12.26,0,0,0,2.2.95,5.48,5.48,0,0,0,1.56.25,2.93,2.93,0,0,0,2.34-1,14.43,14.43,0,0,0,1.56-2.2l2.7,1.28a14.3,14.3,0,0,1-1,1.84A10.51,10.51,0,0,1,321.74,19a7.15,7.15,0,0,1-1.91,1.42A5.44,5.44,0,0,1,317.31,20.94Z"/><path d="M337.44,47.17a23.1,23.1,0,0,1,1.39-8.4,18.44,18.44,0,0,1,3.61-6,14.23,14.23,0,0,1,5.1-3.58A15.58,15.58,0,0,1,353.46,28q6.75,0,10.75,4.4t4,13.54c0,.38,0,.75,0,1.13s-.06.73-.11,1.06H342.33c.15,4.5,1.26,7.94,3.34,10.36s5.38,3.61,9.92,3.61a20.17,20.17,0,0,0,6-.71,24.94,24.94,0,0,0,3.19-1.2l.85,4a19.06,19.06,0,0,1-3.72,1.34,23.5,23.5,0,0,1-6.42.78,21.47,21.47,0,0,1-8.22-1.41,14.73,14.73,0,0,1-5.6-4,15.85,15.85,0,0,1-3.2-6.07A28.24,28.24,0,0,1,337.44,47.17Zm26-2.91q-.13-5.73-2.69-8.93a8.71,8.71,0,0,0-7.23-3.19,9.67,9.67,0,0,0-4.44,1,11.4,11.4,0,0,0-3.4,2.66,12.42,12.42,0,0,0-2.27,3.87,15.77,15.77,0,0,0-.95,4.6Z"/><path d="M386,62.27A14.36,14.36,0,0,0,392.56,61a4.56,4.56,0,0,0,2.59-4.43,6.35,6.35,0,0,0-.46-2.55,5.06,5.06,0,0,0-1.52-1.92,13.62,13.62,0,0,0-2.8-1.63q-1.74-.78-4.29-1.84-2.06-.86-3.9-1.74a15.73,15.73,0,0,1-3.26-2.05,8.9,8.9,0,0,1-2.27-2.8,8.47,8.47,0,0,1-.85-4,8.94,8.94,0,0,1,3.36-7.24Q382.54,28,388.42,28a24.9,24.9,0,0,1,6.2.64,19.38,19.38,0,0,1,3.44,1.13L397,33.91a28.46,28.46,0,0,0-2.88-1.13,18.9,18.9,0,0,0-5.92-.71,13.18,13.18,0,0,0-2.94.32,7.64,7.64,0,0,0-2.44,1,5.34,5.34,0,0,0-1.71,1.7,4.76,4.76,0,0,0-.63,2.52,5.35,5.35,0,0,0,.56,2.56,5.69,5.69,0,0,0,1.67,1.88,13.71,13.71,0,0,0,2.69,1.53c1.07.47,2.28,1,3.65,1.55s2.78,1.14,4.08,1.73A14.89,14.89,0,0,1,396.57,49,9.83,9.83,0,0,1,399,52a9.29,9.29,0,0,1,.92,4.36,8.52,8.52,0,0,1-3.72,7.51q-3.72,2.55-10.17,2.55a25.73,25.73,0,0,1-7.38-.81,28.84,28.84,0,0,1-3.4-1.24l1.2-4.18c.15.09.45.24.93.46a20,20,0,0,0,1.91.71,20.8,20.8,0,0,0,2.87.67A23.23,23.23,0,0,0,386,62.27Z"/></svg>